<?xml version="1.0" encoding="UTF-8" standalone="no"?>
<!DOCTYPE svg PUBLIC "-//W3C//DTD SVG 1.1//EN" "http://www.w3.org/Graphics/SVG/1.1/DTD/svg11.dtd">
<svg width="14px" height="16px" version="1.1" xmlns="http://www.w3.org/2000/svg" xmlns:xlink="http://www.w3.org/1999/xlink" xml:space="preserve" xmlns:serif="http://www.serif.com/" style="fill-rule:evenodd;clip-rule:evenodd;stroke-linejoin:round;stroke-miterlimit:2;">
    <circle cx="7" cy="8" r="6" style="fill:#b3b3b3;"/>
    <path d="M7,1c3.863,0 7,3.137 7,7c0,3.863 -3.137,7 -7,7c-3.863,0 -7,-3.137 -7,-7c0,-3.863 3.137,-7 7,-7Zm0,1c-3.311,0 -6,2.689 -6,6c0,3.311 2.689,6 6,6c3.311,0 6,-2.689 6,-6c0,-3.311 -2.689,-6 -6,-6Z" style="fill:#3d3d3d;"/>
    <path d="M7,2c3.311,0 6,2.689 6,6c0,3.311 -2.689,6 -6,6c-3.311,0 -6,-2.689 -6,-6c0,-3.311 2.689,-6 6,-6Zm0,2.007c2.204,0 3.993,1.789 3.993,3.993c-0,2.204 -1.789,3.993 -3.993,3.993c-2.204,-0 -3.993,-1.789 -3.993,-3.993c0,-2.204 1.789,-3.993 3.993,-3.993Z" style="fill:#ebebeb;"/>
</svg>
